<svg viewBox="-13 0 512 512" xmlns="http://www.w3.org/2000/svg"><path d="m410.691406 244.488281c0 29.683594-7.847656 58.851563-22.699218 84.371094-12.9375 22.242187-30.910157 41.289063-52.289063 55.539063v127.601562h-186v-127.601562c-21.378906-14.25-39.351563-33.296876-52.289063-55.539063-14.851562-25.519531-22.699218-54.6875-22.699218-84.371094 0-92.628906 75.359375-167.988281 167.988281-167.988281s167.988281 75.359375 167.988281 167.988281zm0 0" fill="#fec000"/><path d="m410.691406 244.488281c0 29.683594-7.847656 58.851563-22.699218 84.371094-12.9375 22.242187-30.910157 41.289063-52.289063 55.539063v127.601562h-93v-435.5c92.628906 0 167.988281 75.359375 167.988281 167.988281zm0 0" fill="#ff9f00"/><path d="m149.703125 384.398438h186v127.601562h-186zm0 0" fill="#7985eb"/><path d="m291.664062 259.960938v134.089843h-97.921874v-134.089843l48.960937-91.589844.011719-.019532zm0 0" fill="#fff4ca"/><path d="m291.664062 259.960938v134.089843h-97.921874v-134.089843l.070312-.132813h97.78125zm0 0" fill="#ff7a53"/><path d="m227.703125 0h30v49h-30zm0 0" fill="#ffdf48"/><path d="m327.453125 68.253906 24.550781-42.410156 25.964844 15.03125-24.550781 42.410156zm0 0" fill="#ffcf00"/><path d="m404.128906 134.933594 42.492188-24.402344 14.941406 26.015625-42.492188 24.402344zm0 0" fill="#ffcf00"/><path d="m436.992188 260.996094.101562-30 49 .164062-.101562 30zm0 0" fill="#ffcf00"/><path d="m402.375 356.566406 15.117188-25.914062 42.328124 24.691406-15.117187 25.914062zm0 0" fill="#ffcf00"/><g fill="#ffdf48"><path d="m108.128906 40.886719 25.964844-15.03125 24.550781 42.410156-25.964843 15.03125zm0 0"/><path d="m24.527344 136.515625 14.9375-26.011719 42.488281 24.398438-14.941406 26.015625zm0 0"/><path d="m0 231.160156 49-.167968.101562 30-49 .167968zm0 0"/><path d="m26.277344 355.371094 42.324218-24.691406 15.117188 25.914062-42.324219 24.691406zm0 0"/></g><path d="m242.703125 384.398438h93v127.601562h-93zm0 0" fill="#4b5be6"/><path d="m291.664062 259.960938v134.089843h-48.960937v-225.679687l.011719-.019532zm0 0" fill="#ffe1ba"/><path d="m242.703125 0h15v49h-15zm0 0" fill="#ffcf00"/><path d="m242.703125 394.050781v-134.222656h48.890625l.070312.132813v134.089843zm0 0" fill="#ff4f19"/><path d="m149.703125 448.011719h186v30h-186zm0 0" fill="#00e8f2"/><path d="m242.703125 448.011719h93v30h-93zm0 0" fill="#00cef5"/><path d="m149.703125 384.398438h186v30h-186zm0 0" fill="#00e8f2"/><path d="m242.703125 384.398438h93v30h-93zm0 0" fill="#00cef5"/></svg>