<?xml version="1.0" encoding="iso-8859-1"?>
<!-- Generator: Adobe Illustrator 19.0.0, SVG Export Plug-In . SVG Version: 6.00 Build 0)  -->
<svg version="1.1" id="Capa_1" xmlns="http://www.w3.org/2000/svg" xmlns:xlink="http://www.w3.org/1999/xlink" x="0px" y="0px"
	 viewBox="0 0 496.941 496.941" style="enable-background:new 0 0 496.941 496.941;" xml:space="preserve">
<g>
	<g>
		<g>
			<path d="M176.188,305.694c71.529,0,129.506-57.976,129.506-129.506S246.965,47.435,176.188,47.435S46.682,105.412,46.682,176.941
				S104.659,305.694,176.188,305.694z M176.188,62.494c63.247,0,114.447,51.2,114.447,114.447s-51.2,114.447-114.447,114.447
				S61.741,239.435,61.741,176.941S112.941,62.494,176.188,62.494z"/>
			<path d="M176.188,201.035c2.259,0,3.765,0,6.023-0.753l23.341,38.4c2.259,3.765,6.776,4.518,10.541,2.259
				c3.765-2.259,4.518-6.776,2.259-10.541L195.012,192c3.765-4.518,6.024-9.788,6.024-15.812c0-10.541-7.529-20.329-17.318-23.341
				v-42.165c0-4.518-3.012-7.529-7.529-7.529c-4.518,0-7.529,3.012-7.529,7.529v42.165c-9.788,3.012-17.318,12.047-17.318,23.341
				C151.341,190.494,162.635,201.035,176.188,201.035z M176.188,167.153c5.271,0,9.788,4.518,9.788,9.788s-4.518,9.788-9.788,9.788
				s-9.788-4.518-9.788-9.788S170.918,167.153,176.188,167.153z"/>
			<path d="M176.188,94.118c4.518,0,7.529-3.012,7.529-7.529V75.294c0-4.518-3.012-7.529-7.529-7.529s-7.529,3.012-7.529,7.529
				v11.294C168.659,90.353,171.671,94.118,176.188,94.118z"/>
			<path d="M176.188,259.012c-4.518,0-7.529,3.012-7.529,7.529v11.294c0,4.518,3.012,7.529,7.529,7.529s7.529-3.012,7.529-7.529
				v-11.294C183.718,262.776,179.953,259.012,176.188,259.012z"/>
			<path d="M93.365,176.941c0-4.518-3.012-7.529-7.529-7.529H74.541c-4.518,0-7.529,3.012-7.529,7.529s3.012,7.529,7.529,7.529
				h11.294C89.6,184.471,93.365,180.706,93.365,176.941z"/>
			<path d="M258.259,176.941c0,4.518,3.012,7.529,7.529,7.529h11.294c4.518,0,7.529-3.012,7.529-7.529s-3.012-7.529-7.529-7.529
				h-11.294C262.023,169.412,258.259,172.424,258.259,176.941z"/>
			<path d="M84.329,132.518l9.788,5.271c3.765,2.259,8.282,0.753,10.541-3.012c2.259-3.765,0.753-8.282-3.012-10.541l-9.788-5.271
				c-3.765-2.259-8.282-0.753-10.541,3.012C79.812,125.741,80.565,130.259,84.329,132.518z"/>
			<path d="M267.294,220.612l-9.788-5.271c-3.765-2.259-8.282-0.753-10.541,3.012c-2.259,3.765-0.753,8.282,3.012,10.541
				l9.788,5.271c3.765,2.259,8.282,0.753,10.541-3.012C272.565,227.388,271.059,222.871,267.294,220.612z"/>
			<path d="M134.776,248.471c-3.765-2.259-8.282-0.753-10.541,3.012l-5.271,9.788c-2.259,3.765-0.753,8.282,3.012,10.541
				s8.282,0.753,10.541-3.012l5.271-9.788C139.294,255.247,138.541,249.976,134.776,248.471z"/>
			<path d="M216.847,104.659c3.765,2.259,8.282,0.753,10.541-3.012l5.271-9.788c2.259-3.765,0.753-8.282-3.012-10.541
				c-3.765-2.259-8.282-0.753-10.541,3.012l-5.271,9.788C212.329,98.635,213.835,103.153,216.847,104.659z"/>
			<path d="M123.482,103.153c2.259,3.765,6.776,4.518,10.541,2.259c3.765-2.259,4.518-6.776,2.259-10.541l-6.024-9.788
				c-2.259-3.765-6.776-4.518-10.541-2.259c-3.765,2.259-4.518,6.776-2.259,10.541L123.482,103.153z"/>
			<path d="M218.353,247.718c-3.765,2.259-4.518,6.776-2.259,10.541l6.023,9.788c2.259,3.765,6.776,4.518,10.541,2.259
				c3.765-2.259,4.518-6.776,2.259-10.541l-6.024-9.788C226.635,246.965,221.365,245.459,218.353,247.718z"/>
			<path d="M104.659,219.106c-2.259-3.765-6.776-4.518-10.541-2.259l-9.788,6.023c-3.765,2.259-4.518,6.776-2.259,10.541
				c2.259,3.765,6.776,4.518,10.541,2.259l9.788-6.024C106.165,227.388,106.918,222.118,104.659,219.106z"/>
			<path d="M257.506,137.035l9.788-6.023c3.765-2.259,4.518-6.776,2.259-10.541c-2.259-3.765-6.776-4.518-10.541-2.259l-9.788,6.023
				c-3.765,2.259-4.518,6.776-2.259,10.541C249.224,137.788,253.741,139.294,257.506,137.035z"/>
			<path d="M336.565,176.941c0,27.859-6.776,54.965-20.329,78.306c-2.259,3.765-0.753,8.282,3.012,10.541s8.282,0.753,10.541-3.012
				c14.306-26.353,22.588-55.718,22.588-85.835c0-35.388-10.541-70.024-30.871-99.388c-2.259-3.765-6.776-4.518-10.541-2.259
				c-3.765,2.259-4.518,6.776-2.259,10.541C326.776,112.941,336.565,143.812,336.565,176.941z"/>
			<path d="M265.035,319.247c-2.259-3.765-6.776-5.271-10.541-3.012c-24.094,13.553-51.2,20.329-78.306,20.329
				c-36.141,0-70.024-12.047-97.882-33.882l13.553,0.753c3.765,0,7.529-3.012,7.529-7.529s-3.012-7.529-7.529-7.529l-34.635-0.753
				c-4.518,0-8.282,3.765-7.529,9.035l7.529,33.129c0.753,3.765,5.271,6.776,9.035,6.024c3.765-0.753,6.776-4.518,6.024-9.035
				l-2.259-11.294c30.871,23.341,67.765,36.141,106.918,36.141c29.365,0.753,58.729-6.776,85.082-21.835
				C265.788,327.529,267.294,323.012,265.035,319.247z"/>
			<path d="M15.059,176.941c0-88.847,72.282-161.129,161.129-161.129c36.141,0,70.024,12.047,97.882,33.882l-16.565-0.753
				c-4.518,0-7.529,3.012-8.282,6.776c0,4.518,3.012,7.529,6.776,8.282l39.153,2.259c0,0,0,0,0.753,0
				c5.271,0,8.282-4.518,7.529-9.035l-9.788-37.647c-0.753-3.765-5.271-6.776-9.035-5.271c-3.765,0.753-6.776,5.271-5.271,9.035
				l3.012,13.553C252.235,13.553,214.588,0.753,175.435,0.753C79.059,0.753,0,79.812,0,176.941
				c0,36.141,11.294,70.776,31.624,100.894c2.259,3.765,6.776,4.518,10.541,1.506c3.765-2.259,4.518-6.776,1.506-10.541
				C24.847,241.694,15.059,210.071,15.059,176.941z"/>
			<path d="M490.165,356.141l-21.835-3.012c-2.259-9.035-6.024-18.071-10.541-25.6l13.553-17.318
				c2.259-3.012,1.506-7.529-0.753-10.541L452.518,281.6c-3.012-3.012-6.776-3.012-9.788-0.753L424.659,294.4
				c-8.282-4.518-16.565-8.282-25.6-10.541l-3.012-21.835c-0.753-3.765-3.765-6.776-7.529-6.776h-25.6
				c-3.765,0-6.776,3.012-7.529,6.776l-3.012,21.835c-9.035,2.259-18.071,6.024-25.6,10.541l-17.318-13.553
				c-3.012-2.259-7.529-2.259-9.788,0.753L281.6,299.671c-3.012,2.259-3.012,6.776-0.753,9.788l13.553,17.318
				c-4.518,8.282-8.282,16.565-10.541,25.6l-21.835,3.012c-3.765,0.753-6.776,3.765-6.776,7.529v25.6
				c0,3.765,3.012,6.776,6.776,7.529l21.835,3.012c2.259,9.035,6.024,18.071,10.541,25.6l-13.553,17.318
				c-2.259,3.012-2.259,7.529,0.753,9.788l18.071,18.071c3.012,3.012,6.776,3.012,9.788,0.753l17.318-13.553
				c8.282,4.518,16.565,8.282,25.6,10.541l3.012,21.835c0.753,3.765,3.765,6.776,7.529,6.776h25.6c3.765,0,6.776-3.012,7.529-6.776
				l3.012-21.835c9.035-2.259,18.071-6.024,25.6-10.541l17.318,13.553c1.506,0.753,3.012,1.506,4.518,1.506
				c2.259,0,4.518-0.753,6.023-2.259l18.071-18.071c3.012-3.012,3.012-6.776,0.753-9.788l-13.553-17.318
				c4.518-8.282,8.282-16.565,10.541-25.6l21.835-3.012c3.765-0.753,6.776-3.765,6.776-7.529v-25.6
				C496.941,359.906,493.929,356.141,490.165,356.141z M481.882,382.494l-21.082,3.012c-3.012,0.753-6.023,3.012-6.023,6.024
				c-2.259,11.294-6.024,21.082-12.8,30.118c-1.506,3.012-1.506,6.024,0,9.035l12.8,16.565l-9.035,9.035l-16.565-12.8
				c-2.259-2.259-6.023-2.259-9.035,0c-9.035,6.023-19.576,10.541-30.118,12.8c-3.012,0.753-5.271,3.012-6.023,6.776l-2.259,19.576
				h-12.8l-3.012-21.082c-0.753-3.012-3.012-6.023-6.023-6.776c-10.541-2.259-21.082-6.023-30.118-12.8
				c-3.012-1.506-6.023-1.506-9.035,0l-16.565,12.8l-9.035-9.035l12.8-16.565c2.259-2.259,2.259-6.776,0-9.035
				c-6.024-9.035-10.541-18.823-12.047-30.118c-0.753-3.012-3.012-5.271-6.024-6.024l-21.082-3.012v-11.294l21.082-3.012
				c3.012-0.753,6.024-3.012,6.024-6.023c2.259-11.294,6.023-21.082,12.8-30.118c1.506-3.012,1.506-6.023,0-9.035l-12.8-16.565
				l9.035-9.035l16.565,12.047c2.259,2.259,6.776,2.259,9.788,0c9.035-6.023,18.823-10.541,30.118-12.047
				c3.012-0.753,5.271-3.012,6.024-6.776l3.012-21.082h12.8l3.012,21.082c0.753,3.012,3.012,6.024,6.023,6.776
				c10.541,2.259,21.082,6.024,30.118,12.8c3.012,1.506,6.023,1.506,9.035,0l16.565-12.8l9.035,9.035l-12.8,16.565
				c-2.259,2.259-2.259,6.023,0,9.035c6.024,9.035,10.541,19.576,12.8,30.118c0.753,3.012,3.012,5.271,6.023,6.023l18.823,3.012
				V382.494z"/>
			<path d="M375.718,314.729c-33.882,0-61.741,27.859-61.741,61.741s27.859,61.741,61.741,61.741s61.741-27.859,61.741-61.741
				S409.6,314.729,375.718,314.729z M375.718,423.153c-25.6,0-46.682-21.082-46.682-46.682c0-25.6,21.082-46.682,46.682-46.682
				s46.682,21.082,46.682,46.682C422.4,402.071,401.318,423.153,375.718,423.153z"/>
		</g>
	</g>
</g>
<g>
</g>
<g>
</g>
<g>
</g>
<g>
</g>
<g>
</g>
<g>
</g>
<g>
</g>
<g>
</g>
<g>
</g>
<g>
</g>
<g>
</g>
<g>
</g>
<g>
</g>
<g>
</g>
<g>
</g>
</svg>
