<svg height="472pt" viewBox="-60 0 472 472.3" width="472pt" xmlns="http://www.w3.org/2000/svg"><path d="m272.351562 304.300781v168l-88-29.402343-8-2.597657-8 2.597657-88 29.402343v-168zm0 0" fill="#ff9811"/><path d="m176.351562 8.300781c15.699219 0 28.597657 16.300781 43 20.300781 27.597657 7.699219 34.796876-11.203124 72.796876 42.296876 38 26.703124 22.800781 40.300781 31 67.902343 4.5 15.199219 21.203124 20.800781 21.203124 37.398438 0 14.902343-17.5 25.800781-21.203124 39.601562-7.597657 28.5 6.800781 45.597657-33.199219 65.800781-29.398438 48.296876-44.699219 38-73.597657 46-14.300781 4-24.402343 16.597657-40 16.597657-15 0-23.902343-12.398438-37.800781-16.097657-61-2.703124-50.300781-22.300781-70.601562-42.300781-50.800781-28.402343-32-43.699219-40.097657-72.199219-4.203124-14.402343-19.5-21.402343-19.5-37.300781 0-16.699219 15.5-25.402343 20-40.699219-6.402343-56.703124 21.097657-47.203124 41.199219-66.902343 21.398438-54.597657 38.800781-34.199219 67.398438-41.699219 13.699219-3.5 24.601562-18.699219 39.402343-18.699219zm0 0" fill="#ffe477"/><path d="m296.351562 176.300781c0 66.273438-53.726562 120-120 120-66.277343 0-120-53.726562-120-120 0-66.273437 53.722657-120 120-120 66.273438 0 120 53.726563 120 120zm0 0" fill="#ffda44"/><path d="m176.351562 128.300781 16 32h32l-32 24 16 40-32-24-32 24 16-40-32-24h32zm0 0" fill="#ff7956"/><path d="m193.550781 152.300781-17.199219-52.699219-17.203124 52.699219h-55.5l44.902343 32.597657-17.199219 52.703124 44.898438-32.5 44.898438 32.597657-17.199219-52.699219 44.902343-32.601562h-55.300781zm-2.699219 43.5-14.5-10.5-14.5 10.5 5.5-17-14.300781-10.5h17.800781l5.597657-17 5.601562 17h17.800781l-14.402343 10.5zm0 0" fill="#ffb655"/><path d="m176.351562 48.300781c-70.703124 0-128 57.300781-128 128s57.296876 128 128 128c70.699219 0 128-57.300781 128-128-.101562-70.699219-57.300781-127.902343-128-128zm41.5 232c-57.5 22.898438-122.601562-5.101562-145.5-62.5-22.902343-57.402343 5.097657-122.601562 62.5-145.5 57.398438-22.902343 122.597657 5 145.5 62.5 5.296876 13.199219 8 27.300781 8 41.5-.101562 45.800781-28 87-70.5 104zm0 0" fill="#ff9811"/><g fill="#ff6243"><path d="m176.351562 352.300781c-10.300781-1.101562-19.902343-5.601562-27.402343-12.800781-4.097657-3.699219-8.898438-6.601562-14-8.699219-5.699219-.902343-11.5-.699219-17.199219.398438-9.800781 2.402343-20.101562 1.5-29.398438-2.597657-8.203124-6-14.203124-14.601562-17.101562-24.402343-1.800781-5.398438-4.5-10.398438-8.101562-14.898438-4.398438-3.5-9.5-6.300781-14.898438-8-9.800781-2.800781-18.398438-8.902343-24.398438-17.101562-4-9.199219-5-19.597657-2.601562-29.398438 1.199219-5.699219 1.300781-11.5.398438-17.199219-2-5.101562-5-9.902343-8.699219-14-7.199219-7.5-11.597657-17.101562-12.800781-27.402343 1.101562-10.300781 5.601562-19.898438 12.800781-27.398438 3.699219-4.101562 6.601562-8.902343 8.699219-14 .902343-5.699219.703124-11.5-.398438-17.199219-2.398438-9.800781-1.5-20.101562 2.601562-29.402343 6-8.199219 14.597657-14.199219 24.398438-17.097657 5.398438-1.800781 10.398438-4.5 14.898438-8.101562 3.5-4.398438 6.300781-9.5 8-14.898438 2.800781-9.800781 8.902343-18.402343 17.101562-24.402343 9.199219-4.097657 19.601562-5 29.398438-2.597657 5.703124 1.097657 11.5 1.296876 17.203124.398438 5.097657-2 9.898438-5 14-8.699219 7.5-7.199219 17.097657-11.601562 27.398438-12.800781 10.300781 1.101562 19.898438 5.601562 27.398438 12.800781 4.101562 3.699219 8.902343 6.597657 14 8.699219 5.703124.898438 11.5.699219 17.203124-.398438 9.796876-2.402343 20.097657-1.5 29.398438 2.597657 8.199219 6 14.199219 14.601562 17.101562 24.402343 1.796876 5.398438 4.5 10.398438 8.097657 14.898438 4.402343 3.5 9.5 6.300781 14.902343 8 9.796876 2.800781 18.398438 8.898438 24.398438 17.101562 4 9.199219 5 19.597657 2.601562 29.398438-1.203124 5.699219-1.300781 11.5-.402343 17.199219 2 5.101562 5 9.902343 8.699219 14 7.203124 7.5 11.601562 17.101562 12.800781 27.402343-1.097657 10.296876-5.597657 19.898438-12.800781 27.398438-3.699219 4.101562-6.597657 8.898438-8.699219 14-.898438 5.699219-.699219 11.5.402343 17.199219 2.398438 9.800781 1.5 20.101562-2.601562 29.402343-6 8.199219-14.601562 14.199219-24.398438 17.097657-5.402343 1.800781-10.402343 4.5-14.902343 8.101562-3.5 4.398438-6.300781 9.5-8 14.898438-2.800781 9.800781-8.898438 18.402343-17.097657 24.402343-9.203124 4-19.601562 4.898438-29.402343 2.597657-5.699219-1.097657-11.5-1.300781-17.199219-.398438-5.101562 2-9.898438 5-14 8.699219-7.5 7.199219-17.101562 11.699219-27.398438 12.800781zm-47.101562-38c3.300781 0 6.601562.398438 9.800781 1.199219 7.199219 2.5 13.898438 6.398438 19.597657 11.398438 4.800781 4.800781 11 8.101562 17.601562 9.402343 6.699219-1.402343 12.800781-4.699219 17.601562-9.402343 5.699219-5.097657 12.398438-8.898438 19.597657-11.398438 7.699219-1.5 15.699219-1.5 23.402343 0 6.398438 1.601562 13 1.398438 19.296876-.5 5-4.5 8.5-10.300781 10.300781-16.699219 2.5-7.402343 6.402343-14.199219 11.5-20.101562 5.902343-5.097657 12.699219-9 20.101562-11.5 6.398438-1.800781 12.199219-5.300781 16.699219-10.300781 2-6.296876 2.199219-13 .601562-19.296876-1.5-7.703124-1.5-15.703124 0-23.402343 2.5-7.199219 6.398438-13.898438 11.398438-19.597657 4.800781-4.800781 8.101562-11 9.398438-17.601562-1.398438-6.699219-4.699219-12.800781-9.398438-17.601562-5.101562-5.699219-8.898438-12.398438-11.398438-19.597657-1.5-7.699219-1.5-15.699219 0-23.402343 1.597657-6.398438 1.5-13-.5-19.296876-4.5-5-10.300781-8.5-16.703124-10.300781-7.398438-2.5-14.199219-6.402343-20.097657-11.5-5.101562-5.902343-9-12.699219-11.5-20.101562-1.800781-6.398438-5.300781-12.199219-10.300781-16.699219-6.300781-2-13-2.199219-19.300781-.601562-7.699219 1.5-15.699219 1.5-23.398438 0-7.199219-2.5-13.902343-6.398438-19.601562-11.398438-4.800781-4.800781-11-8.101562-17.597657-9.398438-6.703124 1.398438-12.800781 4.699219-17.601562 9.398438-5.699219 5.101562-12.398438 8.898438-19.601562 11.398438-7.699219 1.5-15.699219 1.5-23.398438 0-6.398438-1.597657-13-1.398438-19.300781.5-5 4.5-8.5 10.300781-10.300781 16.703124-2.5 7.398438-6.398438 14.199219-11.5 20.097657-5.898438 5.101562-12.699219 9-20.097657 11.5-6.402343 1.800781-12.199219 5.300781-16.699219 10.300781-2 6.300781-2.203124 13-.601562 19.300781 1.5 7.699219 1.5 15.699219 0 23.398438-2.5 7.199219-6.398438 13.902343-11.398438 19.601562-4.800781 4.800781-8.101562 11-9.402343 17.597657 1.402343 6.703124 4.699219 12.800781 9.402343 17.601562 5.097657 5.699219 8.898438 12.398438 11.398438 19.601562 1.5 7.699219 1.5 15.699219 0 23.398438-1.601562 6.398438-1.5 13 .5 19.300781 4.5 5 10.300781 8.5 16.699219 10.300781 7.402343 2.5 14.199219 6.398438 20.101562 11.5 5.097657 5.898438 9 12.699219 11.5 20.097657 1.800781 6.402343 5.300781 12.199219 10.300781 16.699219 6.296876 2 13 2.203124 19.296876.601562 4.5-.699219 9.101562-1.101562 13.601562-1.199219zm0 0"/><path d="m184.351562 384.300781v58.597657l-8-2.597657-8 2.597657v-58.597657zm0 0"/><path d="m80.351562 368.300781h64v16h-64zm0 0"/><path d="m240.351562 400.300781h32v16h-32zm0 0"/><path d="m208.351562 400.300781h16v16h-16zm0 0"/></g></svg>